# xmcd
#
# Track frame offsets:
#  150
#  13634
#  29581
#  43646
#  56765
#  71764
#  85472
#  98645
#  110698
#  123504
#  136080
#  151779
#  166765
#  179382
#  192201
#  206324
#  219855
#  233179
#  247760
#  262439
#  275670
#  288546
#  302847
#  317468
#  331516
#
# Disc length: 4620 seconds
#
# Revision: 0
# Processed by: cddbd v1.5.2PL0 Copyright (c) Steve Scherf et al.
# Submitted via: AltoMP3_Maker 3.0
#
DISCID=61120a19
DTITLE=Tampa Red and Georgia Tom - Music Making in Chicago 1928-1935, CD B
DYEAR=1900
DGENRE=
TTITLE0=Boot It Boy
TTITLE1=My Daddy Rocks Me
TTITLE2=Givin' It Away
TTITLE3=What You Gonna Do
TTITLE4=It's So Nice
TTITLE5=Voice of the Blues
TTITLE6=The Duck's Yas-Yas-Yas
TTITLE7=Pat That Bread
TTITLE8=What Is That Tastes Like Gravy
TTITLE9=You Better Tighten Up on It
TTITLE10=Prison Bound Blues (guitar solo)
TTITLE11=You Got to Reap What You Sow (guitar solo)
TTITLE12=I Wonder Where My Easy Rider's Gone
TTITLE13=Come on Mama, Do That Dance
TTITLE14=Friendless Blues
TTITLE15=Pig Meat Papa GEORGIA TOM
TTITLE16=Hear Me Beefin' at You GEORGIA TOM
TTITLE17=Mama Don't Allow No Easy Riders Here
TTITLE18=Saturday Night Scrontch
TTITLE19=Mama Don't Allow No Easy Riders Here
TTITLE20=Strewin' Your Mess
TTITLE21=Dying Mercy Blues
TTITLE22=Whiskey Drinkin' Blues JENNY POPE
TTITLE23=Doggin' Me around Blues JENNY POPE
TTITLE24=Worried Man Blues
EXTD=
EXTT0=
EXTT1=
EXTT2=
EXTT3=
EXTT4=
EXTT5=
EXTT6=
EXTT7=
EXTT8=
EXTT9=
EXTT10=
EXTT11=
EXTT12=
EXTT13=
EXTT14=
EXTT15=
EXTT16=
EXTT17=
EXTT18=
EXTT19=
EXTT20=
EXTT21=
EXTT22=
EXTT23=
EXTT24=
PLAYORDER=
